<svg xmlns="http://www.w3.org/2000/svg" version="1.1" xmlns:xlink="http://www.w3.org/1999/xlink" xmlns:svgjs="http://svgjs.com/svgjs" width="1000" height="1000"><rect width="1000" height="1000" rx="450" ry="450" fill="#555555"></rect><g transform="matrix(3.125,0,0,3.125,100,100)"><svg xmlns="http://www.w3.org/2000/svg" version="1.1" xmlns:xlink="http://www.w3.org/1999/xlink" xmlns:svgjs="http://svgjs.com/svgjs" width="256" height="256"><svg xmlns="http://www.w3.org/2000/svg" width="256" height="256" viewBox="0 0 100 100"><rect width="100" height="100" rx="20" fill="#7d6ee7"></rect><path fill="#fff" d="M50.85 51.48L50.85 71.02Q50.85 72.63 49.91 73.72Q48.96 74.80 47.07 75.78L47.07 75.78Q44.82 76.86 40.86 77.67Q36.91 78.48 32.85 78.48L32.85 78.48Q26.55 78.48 21.33 76.77Q16.11 75.06 12.33 71.55Q8.55 68.05 6.48 62.69Q4.41 57.33 4.41 50.05L4.41 50.05Q4.41 42.84 6.57 37.45Q8.73 32.05 12.47 28.49Q16.20 24.94 21.15 23.18Q26.11 21.42 31.68 21.42L31.68 21.42Q35.46 21.42 38.66 22.05Q41.85 22.69 44.10 23.72Q46.35 24.76 47.61 26.02Q48.88 27.27 48.88 28.53L48.88 28.53Q48.88 29.80 48.16 30.70Q47.43 31.59 46.45 32.05L46.45 32.05Q44.02 30.42 40.68 29.03Q37.35 27.63 32.13 27.63L32.13 27.63Q27.81 27.63 24.13 29.08Q20.43 30.52 17.73 33.30Q15.03 36.09 13.50 40.32Q11.97 44.55 11.97 50.05L11.97 50.05Q11.97 55.89 13.55 60.08Q15.13 64.27 17.96 66.97Q20.79 69.66 24.62 70.97Q28.45 72.27 32.95 72.27L32.95 72.27Q36.18 72.27 39.06 71.73Q41.95 71.19 43.56 70.38L43.56 70.38L43.56 53.83L29.97 53.83Q29.70 53.38 29.43 52.61Q29.16 51.84 29.16 50.95L29.16 50.95Q29.16 49.41 29.88 48.56Q30.60 47.70 31.95 47.70L31.95 47.70L46.98 47.70Q48.60 47.70 49.73 48.74Q50.85 49.77 50.85 51.48L50.85 51.48ZM78.66 72.63L78.66 72.63Q82.44 72.63 84.92 71.87Q87.39 71.11 88.47 70.38L88.47 70.38L88.47 57.33L77.31 58.50Q72.63 58.95 70.38 60.62Q68.13 62.28 68.13 65.53L68.13 65.53Q68.13 68.94 70.75 70.79Q73.35 72.63 78.66 72.63ZM78.57 34.56L78.57 34.56Q86.41 34.56 91.00 38.07Q95.58 41.59 95.58 49.14L95.58 49.14L95.58 70.47Q95.58 72.45 94.82 73.49Q94.06 74.52 92.53 75.42L92.53 75.42Q90.36 76.69 86.81 77.63Q83.25 78.58 78.66 78.58L78.66 78.58Q70.20 78.58 65.57 75.25Q60.93 71.91 60.93 65.61L60.93 65.61Q60.93 59.67 64.80 56.66Q68.67 53.64 75.69 52.92L75.69 52.92L88.47 51.66L88.47 49.14Q88.47 44.64 85.77 42.57Q83.07 40.51 78.48 40.51L78.48 40.51Q74.70 40.51 71.38 41.59Q68.05 42.66 65.44 44.02L65.44 44.02Q64.72 43.38 64.13 42.57Q63.54 41.77 63.54 40.77L63.54 40.77Q63.54 39.52 64.17 38.70Q64.80 37.89 66.16 37.17L66.16 37.17Q68.58 35.91 71.73 35.24Q74.88 34.56 78.57 34.56Z"></path></svg></svg></g></svg>